<?xml version="1.0" standalone="no"?>
<!DOCTYPE svg PUBLIC "-//W3C//DTD SVG 20010904//EN"
 "http://www.w3.org/TR/2001/REC-SVG-20010904/DTD/svg10.dtd">
<svg version="1.0" xmlns="http://www.w3.org/2000/svg"
 width="1024.000000pt" height="1024.000000pt" viewBox="0 0 1024.000000 1024.000000"
 preserveAspectRatio="xMidYMid meet">

<g transform="translate(0.000000,1024.000000) scale(0.100000,-0.100000)"
fill="#000000" stroke="none">
<path d="M5214 6849 c-96 -12 -155 -61 -187 -153 -12 -35 -17 -38 -110 -70
-113 -39 -263 -121 -397 -216 -247 -176 -471 -401 -1116 -1120 -127 -141 -427
-442 -574 -575 -199 -180 -389 -319 -537 -393 l-81 -41 -18 21 c-57 63 -190
83 -270 41 -88 -47 -130 -125 -121 -225 15 -169 203 -254 349 -158 55 36 88
94 95 166 4 39 11 57 22 60 44 13 173 81 246 130 299 199 674 554 1165 1104
544 609 838 878 1120 1023 92 48 229 103 235 95 1 -2 11 -19 23 -39 55 -91
175 -124 281 -78 52 22 111 84 111 116 0 19 21 16 108 -13 145 -48 330 -156
491 -287 113 -91 338 -314 466 -462 62 -71 206 -247 320 -390 284 -355 396
-485 560 -654 260 -268 498 -458 658 -525 l67 -29 0 -41 c0 -45 36 -131 66
-158 59 -52 178 -73 247 -45 122 52 172 192 112 314 -31 62 -82 99 -157 114
-48 10 -65 9 -110 -6 -29 -9 -67 -28 -85 -41 -39 -30 -42 -30 -106 2 -154 78
-342 231 -574 465 -202 205 -283 298 -588 679 -297 371 -441 535 -611 699
-270 259 -541 433 -765 490 l-71 18 -30 61 c-44 93 -126 135 -234 121z m91
-20 c46 -13 105 -68 105 -99 0 -21 -2 -20 -36 10 -45 39 -73 50 -129 50 -57 0
-89 -13 -143 -57 -41 -34 -44 -35 -37 -12 11 37 64 87 109 103 51 18 80 19
131 5z m-3208 -2490 c34 -13 73 -48 73 -65 0 -10 -11 -8 -42 6 -81 37 -161 25
-253 -35 l-29 -20 19 33 c44 75 150 112 232 81z m6330 -9 c25 -11 51 -33 62
-51 23 -38 20 -50 -6 -24 -28 29 -79 45 -139 45 -45 0 -68 -6 -110 -31 -61
-34 -74 -22 -25 25 57 55 145 70 218 36z"/>
</g>
</svg>
